<?xml version="1.0" encoding="utf-8"?>
<!-- Generator: Adobe Illustrator 23.0.1, SVG Export Plug-In . SVG Version: 6.00 Build 0)  -->
<svg version="1.1" id="Layer_1" xmlns="http://www.w3.org/2000/svg" xmlns:xlink="http://www.w3.org/1999/xlink" x="0px" y="0px"
	 viewBox="0 0 1757.2 788.2" style="enable-background:new 0 0 1757.2 788.2;" xml:space="preserve">
<style type="text/css">
	.st0{fill:#FFFFFF;}
	.st1{font-family:'Helvetica';}
	.st2{font-size:174.17px;}
	.st3{font-size:146px;}
</style>
<title>title-rebuild-white</title>
<text transform="matrix(1 0 0 1 1.2 149.55)" class="st0 st1 st2">The Data of</text>
<text transform="matrix(1 0 0 1 1142.2 691.55)" class="st0 st1 st3">Edition</text>
<g id="g11">
	<path id="letter_P" class="st0" d="M248.2,436.9c16.4,0,23-7.7,23-25.2v-127c0-17.5-5.5-25.2-23-25.2v-17.5h94.1
		c51.4,0,85.4,23,85.4,63.5c0,37.2-30.6,63.5-86.5,63.5H326v41.6c0,19.7,9.9,25.2,37.2,25.2v17.5H248.2V436.9z M326,258.5v95.2h8.8
		c26.3,0,40.5-19.7,40.5-48.2c0-29.6-14.2-47.1-41.6-47.1H326z"/>
	<path id="letter_i" class="st0" d="M429.9,436.9c15.3,0,20.8-6.6,20.8-23v-59.1c0-8.8-6.6-14.2-15.3-13.1h-5.5v-18.6l58-17.5h14.3
		v107.3c0,16.4,5.5,23,20.8,23v17.5h-94.2v-16.4H429.9z M477,244.3c15.3,0,28.5,13.1,28.5,28.5s-13.1,28.5-28.5,28.5
		s-28.5-13.1-28.5-28.5c-0.1-15.6,12.5-28.3,28.1-28.5C476.7,244.3,476.9,244.3,477,244.3"/>
	<path id="letter_t" class="st0" d="M537.2,334h-19.7v-12c23-6.6,51.4-25.2,60.2-52.5h11v46h36.1v18.6h-36.1v71.1
		c0,17.5,9.8,23,19.7,23c6.6,0,14.2-2.2,18.6-5.5l5.5,9.9c-8.8,14.2-29.5,25.2-50.3,25.2c-30.7,0-44.9-18.6-44.9-49.3L537.2,334z"/>
	<path id="letter_c" class="st0" d="M706.9,305.6c19.7,0,37.2,5.5,53.6,14.2l-18.6,50.4h-12c-3.3-30.6-17.5-42.7-32.8-42.7
		c-18.6,0-29.5,16.4-29.5,38.3c0,32.8,23,49.3,47.1,49.3c18.6,0,28.5-7.7,35-21.9l10.9,4.4c-6.6,33.9-21.9,60.2-63.5,60.2
		c-38.3,0-65.7-27.4-65.7-70C632.5,337.3,662,305.6,706.9,305.6"/>
	<path id="letter_h" class="st0" d="M756.1,436.9c15.3,0,20.8-6.6,20.8-23v-127c0-8.8-6.6-13.1-15.3-13.1H755v-19.7l62.4-15.3h11
		v97.4c7.7-20.8,23-30.6,43.8-30.6c27.4,0,46,15.3,46,47.1v60.2c0,16.4,5.5,23,20.8,23v17.5h-86.5v-17.5c13.1,0,13.1-7.7,13.1-21.9
		v-60.2c0-13.1-6.6-19.7-18.6-19.7c-9.9,0-17.5,6.6-19.7,16.4V414c0,14.2,1.1,21.9,13.1,21.9v17.5h-86.5v-16.4H756.1z"/>
	<path id="letter_f" class="st0" d="M947.7,436.9c15.3,0,20.8-6.6,20.8-23V334h-20.8v-12c16.4,0,21.9-4.4,21.9-16.4
		c0-28.5,25.2-66.8,76.6-66.8c16.4,0,33.9,5.5,49.2,12l-21.9,54.7l-10.9-2.2c1.1-29.5-8.8-48.2-26.3-48.2c-14.2,0-21.9,12-21.9,27.4
		c0,13.1,3.3,24.1,5.5,32.8h30.7V334H1021v78.8c0,16.4,5.5,23,20.8,23v17.5h-94.1V436.9z"/>
	<path id="letter_o" class="st0" d="M1049.5,381.1c0-49.3,35-76.6,75.5-76.6s75.5,27.4,75.5,76.6s-35,76.6-75.5,76.6
		S1049.5,430.4,1049.5,381.1 M1107.5,381.1c0,48.2,4.4,62.4,17.5,62.4s17.5-14.2,17.5-62.4s-4.4-62.4-17.5-62.4
		C1111.9,319.8,1107.5,334,1107.5,381.1"/>
	<path id="letter_r" class="st0" d="M1203.8,436.9c15.3,0,20.8-6.6,20.8-23V357c0-8.8-6.6-14.2-15.3-14.2h-6.6v-18.6l54.7-16.4h15.3
		v23c0,12-1.1,29.5-1.1,36.1h1.1c4.4-43.8,24.1-62.4,47.1-62.4c4.4,0,5.5,0,8.8,1.1v50.3c-18.6-3.3-51.4-2.2-51.4,31.8v25.2
		c0,16.4,5.5,23,20.8,23v17.5h-94.1V436.9z"/>
	<path id="letter_k" class="st0" d="M1324.2,436.9c15.3,0,20.8-6.6,20.8-23v-127c0-8.8-6.6-13.1-15.3-13.1h-6.6v-19.7l63.5-15.3
		h10.9v133.5h2.2l25.2-12c12-5.5,14.2-11,14.2-18.6c0-9.9-7.7-15.3-19.7-15.3v-17.6h76.6v15.4c-16.4,19.7-31.7,27.4-49.2,36.1
		l33.9,46c11,14.2,17.5,29.6,28.5,29.6v17.5h-64.6l-44.9-72.2h-2.2v36c0,12,1.1,17.5,13.1,17.5v17.5h-86.5V436.9z"/>
</g>
<g id="レイヤー_2">
	<path id="path5" class="st0" d="M961.4,713H820.2l14.5,14c0,0-80.5,26-120.5,61.2c0,0,62.5-34.8,170.3-35.7
		c0,0-16.3-17.1-17.2-18.5c0,0,33.9-4,141.7,11.4l-8.3-14.9h82.3l4.8-29.1H953.9L961.4,713z M791.5,716.5
		c10.9-17.7,15.1-33.6,15.9-46.8c0.4,1.5,0.8,2.8,1.2,4.3c6.9,22.3,29.9,25.7,47.5,19.5c15-5.2,25.6-29.2,29.3-55.9l4.2,54.5h29.2
		l23.2-51.6l11.8,51.6h28.9l24.8-77.6l-13.2,77.7h29.6l20.2-118.5h-55.3l-19.1,45.6l-7.7-45.3h-23.4l-22.8,46.6l-2.7-47h-32.2
		l1.1,14.3c-4.3-8.2-11-12.7-20.2-13.8c-8.5-1.2-17.1,0.3-24.7,4.3c11.3-30.2,7.9-73.1-25.9-85.6c-35.6-13.2-76,2-95.9,10.5
		c0,0,9.6,4,10.9,5.6c0,0-89,78.1-94.7,123.2c0,0,47.8-86.1,135.2-96.3l-3.8-8.3c0,0,28.1,1.3,26.2,32.5
		c-1.9,31-36.4,43.2-51.9,42.7l16.8-49l-50.2,5.6l-43.4,95.5c0,0,8.2-3.6,12.9-4.6L644.4,716l18.7-6.9c0,0-4.6,42.2,21.1,49.4
		S762.9,763.2,791.5,716.5 M833.4,631.2c2.7-17.9,11.6-31.4,19.7-30.2s12.5,16.8,9.8,34.7s-11.6,31.4-19.7,30.1
		S830.7,649.1,833.4,631.2 M811.8,616.5c-3.8,9.1-6.1,18.8-6.8,28.7c-2.3-8.5-5.7-14.2-7.7-16.7
		C797.5,628.5,803.8,624.5,811.8,616.5 M734,611.4l5.1,6.2l-8,7l-0.9-1.9L734,611.4z M727.6,706.9c-12.1,0-14.7-6.3-13.4-11.5
		c1.1-4.5,16.8-54,20.3-65.3c8.3,5.7,23,17.9,24.3,33.4C760.7,685.2,739.7,706.9,727.6,706.9 M1104.8,602.2l4.4-29.5l-57.2,0.8
		l-20.4,118h59.8l4.7-31.5h-24.8l2.5-14.8l24.5,0.3l4.3-28.7H1077l2.5-14.8L1104.8,602.2z"/>
</g>
<g>
	<path class="st0" d="M217.4,349.9c0.4,59.3-48.8,108.5-110.2,107.5C51.9,456.6,3.5,408,2.7,352.7c-0.8-61.4,48.7-110.9,109.6-110.1
		C169.7,243.3,217.5,291.5,217.4,349.9z M109.8,430.7c44.4,0.4,80.9-35.9,81.2-80.6c0.3-44.3-35.8-80.6-80.4-81
		c-44.4-0.4-80.9,35.8-81.2,80.6C29.1,394,65.2,430.3,109.8,430.7z"/>
	<path class="st0" d="M65.7,410.8c-5.3-5.4-10.3-10.5-15.5-15.9c28-27.9,55.1-55,83.1-82.9c-3.8-3.2-7.2-6.2-10.7-9.1
		c0.2-0.3,0.5-0.6,0.7-1c11.7,0,23.4,0,35.4,0c0,11.9,0,23.7,0,35.5c-0.3,0.2-0.6,0.4-0.8,0.6c-2.8-3.4-5.7-6.9-8.8-10.7
		C121,355.4,93.9,382.5,65.7,410.8z"/>
	<path class="st0" d="M38.6,372.8c-0.9-8-2-16.1-2.5-24.1c-0.1-1.8,1.5-4,2.9-5.4c12.9-13.1,25.9-26,38.9-39c0.9-0.9,2.1-1.5,4-2.9
		c-4.3-3.5-7.8-6.3-11.3-9.1c0.3-0.5,0.6-0.9,0.9-1.4c11.7,0,23.5,0,35.6,0c0,11.7,0,23.5,0,35.2c-0.2,0.3-0.4,0.5-0.7,0.8
		c-2.7-3.7-5.4-7.4-8.6-11.6c-20.1,20.2-38.8,39-57.4,57.7C39.8,372.9,39.2,372.8,38.6,372.8z"/>
	<path class="st0" d="M160.1,378.4c-13,13.2-25.4,24.7-36.6,37.3c-6.6,7.4-13.5,10.2-22.9,7.8c-4.2-1.1-8.5-1.7-13-2.5
		c19-18.9,37.7-37.4,57.5-57.1c-4.5-3.4-8.1-6.2-11.7-8.9c0.4-0.5,0.7-1,1.1-1.5c11.7,0,23.3,0,35.4,0c0,11.9,0,23.8,0,36.8
		C166.4,385.9,163.5,382.5,160.1,378.4z"/>
</g>
</svg>
