<svg xmlns="http://www.w3.org/2000/svg" version="1.1" xmlns:xlink="http://www.w3.org/1999/xlink" xmlns:svgjs="http://svgjs.com/svgjs" width="344.31" height="338.85"><svg id="SvgjsSvg1000" data-name="Layer 1" xmlns="http://www.w3.org/2000/svg" viewBox="0 0 344.31 338.85"><path d="M173.23,0a186.05,186.05,0,0,1,74.54,15.66,156,156,0,0,1,62.92,50.09,167.92,167.92,0,0,1,29.42,65.12,181,181,0,0,1,3.38,56,173.73,173.73,0,0,1-16.58,59.72,157.8,157.8,0,0,1-34.63,47.22A160.83,160.83,0,0,1,230,329.92a166.38,166.38,0,0,1-36.79,7.58c-8.28.65-16.6,1.54-24.88,1.31-25.93-.71-51-5.81-74.61-16.86a157.12,157.12,0,0,1-55.58-43,163.57,163.57,0,0,1-21.68-34.55A178.85,178.85,0,0,1,.75,153.13a173.85,173.85,0,0,1,14-55.06A159.54,159.54,0,0,1,117,8.13,196.62,196.62,0,0,1,173.23,0ZM316,169.66c-.76-8.44-1-17-2.39-25.3a142,142,0,0,0-18.77-51.42,129.62,129.62,0,0,0-36.21-39c-21.75-15.39-46.32-23-72.56-25.47a158.77,158.77,0,0,0-53.69,4.4c-21.93,5.46-41.6,15.32-58.48,30.43A132.55,132.55,0,0,0,39.48,112.8a144.66,144.66,0,0,0-10.53,47c-1.3,24.36,2.37,47.87,12.33,70.31a131.91,131.91,0,0,0,40.1,51.67,135.64,135.64,0,0,0,51.42,24.42,161.45,161.45,0,0,0,52.26,4.21c25.48-2.11,49.26-9.23,70.68-23.46,20.93-13.89,36.34-32.54,46.7-55.3A152.3,152.3,0,0,0,316,169.66Z"></path><path d="M116.46,102.21c6.85.21,13.08-2.08,19.16-4.87,6.49-3,12.89-6.18,19.44-9A18.93,18.93,0,0,1,161.83,87c5.74-.18,11.51.3,17.22-.15,7.41-.57,13.87,1.8,20.26,5,5.19,2.61,10.48,5,15.78,7.44a33.67,33.67,0,0,0,16.57,2.77,5,5,0,0,1,4.87,2.32q5.52,7.86,11.2,15.6a2.94,2.94,0,0,1,0,3.84c-3.52,5.34-7.11,10.65-10.37,16.15-4,6.79-6.72,14.11-4.93,22.11a160.14,160.14,0,0,0,5.1,16.67c2.34,6.87,4.56,13.77,4.86,21.06A28.45,28.45,0,0,1,238,215.91c-6,10-15,16-25.34,20.5-8.23,3.57-16.54,7-24.5,11.1-4.77,2.44-9,6-13.36,9.13-1.11.79-1.87,1-3,0-9.45-8-20.67-12.89-31.87-17.82-7.29-3.21-14.94-5.79-21.17-11-9.26-7.74-15.89-17.09-15-29.73.39-5.44,2.47-10.81,4.18-16.08,2.39-7.36,5-14.62,5.86-22.37a27.55,27.55,0,0,0-4.06-18.37c-3.63-5.67-7.33-11.3-11-16.92a3.76,3.76,0,0,1,0-4.81c3.15-4.29,6.24-8.62,9.37-12.93C111.82,101.46,110.64,102,116.46,102.21Z"></path>
<style>
    rect {
    fill: black;
    }
    @media (prefers-color-scheme: dark) {
        rect {
        fill: white;
        }
    }
</style>
</svg><style>@media (prefers-color-scheme: light) { :root { filter: none; } }
@media (prefers-color-scheme: dark) { :root { filter: invert(100%); } }
</style></svg>