<?xml version="1.0" encoding="utf-8"?>
<!-- Generator: Adobe Illustrator 23.0.1, SVG Export Plug-In . SVG Version: 6.00 Build 0)  -->
<svg version="1.1" id="Layer_1" xmlns="http://www.w3.org/2000/svg" xmlns:xlink="http://www.w3.org/1999/xlink" x="0px" y="0px"
	 viewBox="0 0 1757.2 788.2" style="enable-background:new 0 0 1757.2 788.2;" xml:space="preserve">
<style type="text/css">
	.st0{font-family:'Helvetica';}
	.st1{font-size:174.17px;}
	.st2{font-size:146px;}
</style>
<title>title-rebuild-white</title>
<text transform="matrix(1 0 0 1 1.2 149.55)" class="st0 st1">The Data of</text>
<text transform="matrix(1 0 0 1 695.9398 691.55)" class="st0 st2">Album Analysis</text>
<g id="g11">
	<path id="letter_P" d="M248.2,436.9c16.4,0,23-7.7,23-25.2v-127c0-17.5-5.5-25.2-23-25.2v-17.5h94.1c51.4,0,85.4,23,85.4,63.5
		c0,37.2-30.6,63.5-86.5,63.5H326v41.6c0,19.7,9.9,25.2,37.2,25.2v17.5H248.2V436.9z M326,258.5v95.2h8.8
		c26.3,0,40.5-19.7,40.5-48.2c0-29.6-14.2-47.1-41.6-47.1H326z"/>
	<path id="letter_i" d="M429.9,436.9c15.3,0,20.8-6.6,20.8-23v-59.1c0-8.8-6.6-14.2-15.3-13.1h-5.5v-18.6l58-17.5h14.3v107.3
		c0,16.4,5.5,23,20.8,23v17.5h-94.2v-16.4H429.9z M477,244.3c15.3,0,28.5,13.1,28.5,28.5s-13.1,28.5-28.5,28.5s-28.5-13.1-28.5-28.5
		c-0.1-15.6,12.5-28.3,28.1-28.5C476.7,244.3,476.9,244.3,477,244.3"/>
	<path id="letter_t" d="M537.2,334h-19.7v-12c23-6.6,51.4-25.2,60.2-52.5h11v46h36.1v18.6h-36.1v71.1c0,17.5,9.8,23,19.7,23
		c6.6,0,14.2-2.2,18.6-5.5l5.5,9.9c-8.8,14.2-29.5,25.2-50.3,25.2c-30.7,0-44.9-18.6-44.9-49.3L537.2,334z"/>
	<path id="letter_c" d="M706.9,305.6c19.7,0,37.2,5.5,53.6,14.2l-18.6,50.4h-12c-3.3-30.6-17.5-42.7-32.8-42.7
		c-18.6,0-29.5,16.4-29.5,38.3c0,32.8,23,49.3,47.1,49.3c18.6,0,28.5-7.7,35-21.9l10.9,4.4c-6.6,33.9-21.9,60.2-63.5,60.2
		c-38.3,0-65.7-27.4-65.7-70C632.5,337.3,662,305.6,706.9,305.6"/>
	<path id="letter_h" d="M756.1,436.9c15.3,0,20.8-6.6,20.8-23v-127c0-8.8-6.6-13.1-15.3-13.1H755v-19.7l62.4-15.3h11v97.4
		c7.7-20.8,23-30.6,43.8-30.6c27.4,0,46,15.3,46,47.1v60.2c0,16.4,5.5,23,20.8,23v17.5h-86.5v-17.5c13.1,0,13.1-7.7,13.1-21.9v-60.2
		c0-13.1-6.6-19.7-18.6-19.7c-9.9,0-17.5,6.6-19.7,16.4V414c0,14.2,1.1,21.9,13.1,21.9v17.5h-86.5v-16.4H756.1z"/>
	<path id="letter_f" d="M947.7,436.9c15.3,0,20.8-6.6,20.8-23V334h-20.8v-12c16.4,0,21.9-4.4,21.9-16.4c0-28.5,25.2-66.8,76.6-66.8
		c16.4,0,33.9,5.5,49.2,12l-21.9,54.7l-10.9-2.2c1.1-29.5-8.8-48.2-26.3-48.2c-14.2,0-21.9,12-21.9,27.4c0,13.1,3.3,24.1,5.5,32.8
		h30.7V334H1021v78.8c0,16.4,5.5,23,20.8,23v17.5h-94.1V436.9z"/>
	<path id="letter_o" d="M1049.5,381.1c0-49.3,35-76.6,75.5-76.6s75.5,27.4,75.5,76.6s-35,76.6-75.5,76.6S1049.5,430.4,1049.5,381.1
		 M1107.5,381.1c0,48.2,4.4,62.4,17.5,62.4s17.5-14.2,17.5-62.4s-4.4-62.4-17.5-62.4C1111.9,319.8,1107.5,334,1107.5,381.1"/>
	<path id="letter_r" d="M1203.8,436.9c15.3,0,20.8-6.6,20.8-23V357c0-8.8-6.6-14.2-15.3-14.2h-6.6v-18.6l54.7-16.4h15.3v23
		c0,12-1.1,29.5-1.1,36.1h1.1c4.4-43.8,24.1-62.4,47.1-62.4c4.4,0,5.5,0,8.8,1.1v50.3c-18.6-3.3-51.4-2.2-51.4,31.8v25.2
		c0,16.4,5.5,23,20.8,23v17.5h-94.1V436.9z"/>
	<path id="letter_k" d="M1324.2,436.9c15.3,0,20.8-6.6,20.8-23v-127c0-8.8-6.6-13.1-15.3-13.1h-6.6v-19.7l63.5-15.3h10.9v133.5h2.2
		l25.2-12c12-5.5,14.2-11,14.2-18.6c0-9.9-7.7-15.3-19.7-15.3v-17.6h76.6v15.4c-16.4,19.7-31.7,27.4-49.2,36.1l33.9,46
		c11,14.2,17.5,29.6,28.5,29.6v17.5h-64.6l-44.9-72.2h-2.2v36c0,12,1.1,17.5,13.1,17.5v17.5h-86.5V436.9z"/>
</g>
<g>
	<path d="M217.4,349.9c0.4,59.3-48.8,108.5-110.2,107.5C51.9,456.6,3.5,408,2.7,352.7c-0.8-61.4,48.7-110.9,109.6-110.1
		C169.7,243.3,217.5,291.5,217.4,349.9z M109.8,430.7c44.4,0.4,80.9-35.9,81.2-80.6c0.3-44.3-35.8-80.6-80.4-81
		c-44.4-0.4-80.9,35.8-81.2,80.6C29.1,394,65.2,430.3,109.8,430.7z"/>
	<path d="M65.7,410.8c-5.3-5.4-10.3-10.5-15.5-15.9c28-27.9,55.1-55,83.1-82.9c-3.8-3.2-7.2-6.2-10.7-9.1c0.2-0.3,0.5-0.6,0.7-1
		c11.7,0,23.4,0,35.4,0c0,11.9,0,23.7,0,35.5c-0.3,0.2-0.6,0.4-0.8,0.6c-2.8-3.4-5.7-6.9-8.8-10.7C121,355.4,93.9,382.5,65.7,410.8z
		"/>
	<path d="M38.6,372.8c-0.9-8-2-16.1-2.5-24.1c-0.1-1.8,1.5-4,2.9-5.4c12.9-13.1,25.9-26,38.9-39c0.9-0.9,2.1-1.5,4-2.9
		c-4.3-3.5-7.8-6.3-11.3-9.1c0.3-0.5,0.6-0.9,0.9-1.4c11.7,0,23.5,0,35.6,0c0,11.7,0,23.5,0,35.2c-0.2,0.3-0.4,0.5-0.7,0.8
		c-2.7-3.7-5.4-7.4-8.6-11.6c-20.1,20.2-38.8,39-57.4,57.7C39.8,372.9,39.2,372.8,38.6,372.8z"/>
	<path d="M160.1,378.4c-13,13.2-25.4,24.7-36.6,37.3c-6.6,7.4-13.5,10.2-22.9,7.8c-4.2-1.1-8.5-1.7-13-2.5
		c19-18.9,37.7-37.4,57.5-57.1c-4.5-3.4-8.1-6.2-11.7-8.9c0.4-0.5,0.7-1,1.1-1.5c11.7,0,23.3,0,35.4,0c0,11.9,0,23.8,0,36.8
		C166.4,385.9,163.5,382.5,160.1,378.4z"/>
</g>
</svg>
