<?xml version="1.0" standalone="no"?>
<!DOCTYPE svg PUBLIC "-//W3C//DTD SVG 20010904//EN"
 "http://www.w3.org/TR/2001/REC-SVG-20010904/DTD/svg10.dtd">
<svg version="1.0" xmlns="http://www.w3.org/2000/svg"
 width="287.000000pt" height="287.000000pt" viewBox="0 0 287.000000 287.000000"
 preserveAspectRatio="xMidYMid meet">
<metadata>
Created by potrace 1.14, written by Peter Selinger 2001-2017
</metadata>
<g transform="translate(0.000000,287.000000) scale(0.100000,-0.100000)"
fill="#000000" stroke="none">
<path d="M1319 2856 c-2 -2 -35 -7 -74 -11 -175 -17 -411 -99 -568 -196 -110
-68 -157 -106 -254 -206 -200 -205 -329 -473 -377 -783 -14 -92 -16 -389 -3
-450 3 -14 8 -41 11 -60 3 -19 15 -70 26 -113 76 -289 243 -551 465 -729 182
-146 436 -253 675 -284 25 -3 56 -7 70 -10 33 -6 259 -6 285 0 11 2 49 7 85
11 36 4 68 9 71 11 4 2 23 6 42 9 20 4 78 20 129 36 421 136 734 453 873 887
21 64 30 103 50 202 19 96 25 311 12 430 -33 301 -159 596 -340 797 -47 52
-75 80 -156 151 -51 45 -189 132 -264 167 -131 61 -268 103 -387 121 -19 3
-46 8 -60 10 -29 6 -306 14 -311 10z m301 -221 c14 -3 52 -10 85 -16 76 -14
191 -52 275 -91 273 -128 485 -371 586 -672 18 -56 36 -119 40 -140 3 -21 8
-48 10 -60 15 -69 18 -115 17 -236 -3 -470 -238 -869 -629 -1070 -109 -56
-218 -90 -379 -118 -55 -9 -317 -9 -386 1 -68 9 -205 47 -276 76 -386 154
-642 490 -708 926 -18 119 -13 354 9 460 68 314 241 584 479 747 146 100 348
173 537 194 30 4 56 8 58 9 5 5 255 -4 282 -10z"/>
<path d="M1265 2227 c-16 -7 -64 -29 -105 -51 -110 -56 -173 -77 -241 -81 -34
-3 -62 -6 -63 -7 -2 -2 -28 -40 -59 -85 -31 -45 -57 -89 -57 -97 0 -14 23 -52
91 -154 73 -108 75 -191 8 -397 -69 -216 -56 -314 59 -432 48 -50 116 -87 352
-195 14 -7 62 -36 107 -65 44 -29 85 -53 90 -53 5 0 18 8 29 18 44 41 124 88
218 130 151 65 178 79 230 116 100 71 154 163 161 276 2 34 -19 124 -61 257
-19 62 -35 134 -35 160 -1 64 29 141 97 247 30 48 53 94 50 102 -11 29 -118
174 -129 175 -117 5 -140 12 -301 90 l-121 59 -145 -1 c-87 0 -157 -5 -175
-12z"/>
</g>
</svg>
