<?xml version="1.0" standalone="no"?>
<!DOCTYPE svg PUBLIC "-//W3C//DTD SVG 20010904//EN"
 "http://www.w3.org/TR/2001/REC-SVG-20010904/DTD/svg10.dtd">
<svg version="1.0" xmlns="http://www.w3.org/2000/svg"
 width="284.000000pt" height="284.000000pt" viewBox="0 0 284.000000 284.000000"
 preserveAspectRatio="xMidYMid meet">
<metadata>
Created by potrace 1.14, written by Peter Selinger 2001-2017
</metadata>
<g transform="translate(0.000000,284.000000) scale(0.100000,-0.100000)"
fill="#000000" stroke="none">
<path d="M1273 2830 c-642 -67 -1111 -500 -1229 -1135 -25 -133 -26 -409 -1
-542 101 -551 473 -961 992 -1093 356 -91 730 -54 1041 103 489 247 780 792
733 1375 -54 673 -502 1173 -1142 1277 -118 19 -293 26 -394 15z m412 -210
c189 -42 335 -106 470 -207 385 -287 558 -816 431 -1317 -117 -460 -437 -769
-901 -872 -96 -21 -330 -29 -437 -15 -527 70 -901 421 -1015 951 -25 119 -25
410 0 528 116 530 490 879 1019 951 106 14 326 5 433 -19z"/>
<path d="M1110 2250 c-148 -71 -208 -90 -284 -90 l-42 0 -67 -97 c-37 -54 -67
-104 -67 -111 0 -7 27 -55 60 -108 79 -126 89 -145 100 -203 12 -67 -1 -144
-57 -324 -40 -131 -45 -156 -41 -216 9 -115 92 -242 204 -307 24 -14 104 -53
177 -86 138 -63 226 -111 291 -162 44 -34 30 -38 153 47 38 26 131 74 206 107
75 33 161 75 190 93 67 44 138 120 174 188 25 48 28 63 27 144 -1 79 -7 108
-49 235 -77 234 -70 292 59 495 31 49 56 94 56 100 0 6 -30 53 -68 105 l-67
95 -67 7 c-87 8 -116 18 -272 94 l-131 64 -170 0 -170 0 -145 -70z"/>
</g>
</svg>
